<?xml version="1.0" encoding="UTF-8" standalone="no"?>
<!-- Created with Inkscape (http://www.inkscape.org/) -->

<svg
   xmlns:dc="http://purl.org/dc/elements/1.1/"
   xmlns:cc="http://creativecommons.org/ns#"
   xmlns:rdf="http://www.w3.org/1999/02/22-rdf-syntax-ns#"
   xmlns:svg="http://www.w3.org/2000/svg"
   xmlns="http://www.w3.org/2000/svg"
   xmlns:sodipodi="http://sodipodi.sourceforge.net/DTD/sodipodi-0.dtd"
   xmlns:inkscape="http://www.inkscape.org/namespaces/inkscape"
   width="1920"
   height="1038.6294"
   viewBox="0 0 507.99999 274.80404"
   version="1.1"
   id="svg8"
   inkscape:version="0.92.1 r15371"
   sodipodi:docname="2018-07-29 windows-google-chrome-frame-full-screen.svg">
  <defs
     id="defs2">
    <filter
       inkscape:collect="always"
       style="color-interpolation-filters:sRGB"
       id="filter4742"
       x="-0.0065086144"
       width="1.0130172"
       y="-0.076780535"
       height="1.1535611">
      <feGaussianBlur
         inkscape:collect="always"
         stdDeviation="0.35229757"
         id="feGaussianBlur4744" />
    </filter>
    <filter
       inkscape:collect="always"
       style="color-interpolation-filters:sRGB"
       id="filter4414"
       x="-0.1069096"
       width="1.2138191"
       y="-0.33422664"
       height="1.6684533">
      <feGaussianBlur
         inkscape:collect="always"
         stdDeviation="0.37444925"
         id="feGaussianBlur4416" />
    </filter>
  </defs>
  <sodipodi:namedview
     id="base"
     pagecolor="#ffffff"
     bordercolor="#666666"
     borderopacity="1.0"
     inkscape:pageopacity="0.0"
     inkscape:pageshadow="2"
     inkscape:zoom="0.35355339"
     inkscape:cx="510.49631"
     inkscape:cy="550.93789"
     inkscape:document-units="px"
     inkscape:current-layer="layer1"
     showgrid="false"
     units="px"
     showborder="true"
     inkscape:window-width="1920"
     inkscape:window-height="1017"
     inkscape:window-x="-8"
     inkscape:window-y="-8"
     inkscape:window-maximized="1"
     inkscape:object-paths="true"
     inkscape:snap-global="true"
     fit-margin-top="0"
     fit-margin-left="0"
     fit-margin-right="0"
     fit-margin-bottom="0" />
  <metadata
     id="metadata5">
    <rdf:RDF>
      <cc:Work
         rdf:about="">
        <dc:format>image/svg+xml</dc:format>
        <dc:type
           rdf:resource="http://purl.org/dc/dcmitype/StillImage" />
        <dc:title></dc:title>
      </cc:Work>
    </rdf:RDF>
  </metadata>
  <g
     inkscape:label="Layer 1"
     inkscape:groupmode="layer"
     id="layer1"
     transform="translate(-177.92503,-117.59011)">
    <rect
       y="117.59011"
       x="177.92503"
       height="274.80402"
       width="508"
       id="rect4329"
       style="opacity:1;vector-effect:none;fill:#ffffff;fill-opacity:1;stroke:none;stroke-width:0.51530576;stroke-linecap:round;stroke-linejoin:round;stroke-miterlimit:4;stroke-dasharray:none;stroke-dashoffset:0;stroke-opacity:1" />
    <path
       style="opacity:1;vector-effect:none;fill:#2974ef;fill-opacity:1;stroke:none;stroke-width:6.37474632;stroke-linecap:round;stroke-linejoin:round;stroke-miterlimit:4;stroke-dasharray:none;stroke-dashoffset:0;stroke-opacity:1"
       d="M 177.92503,117.54175 H 685.8 v 7.52256 H 177.92503 Z"
       id="rect4325"
       inkscape:connector-curvature="0"
       sodipodi:nodetypes="ccccc" />
    <path
       inkscape:connector-curvature="0"
       style="opacity:1;vector-effect:none;fill:#f2f2f2;fill-opacity:1;stroke:none;stroke-width:3.58641386;stroke-linecap:round;stroke-linejoin:round;stroke-miterlimit:4;stroke-dasharray:none;stroke-dashoffset:0;stroke-opacity:1"
       d="m 182.97023,117.55264 -3.11764,7.37939 h -1.92756 v 9.93015 H 685.8 v -9.93015 H 233.56093 l -3.11712,-7.37939 z"
       id="path4339"
       sodipodi:nodetypes="ccccccccc" />
    <path
       style="fill:#d0d0d0;fill-opacity:1;stroke:none;stroke-width:0.26458332px;stroke-linecap:butt;stroke-linejoin:miter;stroke-opacity:1"
       d="m 233.64763,119.44792 h 6.71181 l 1.8475,4.068 h -6.87551 z"
       id="path4334"
       inkscape:connector-curvature="0"
       sodipodi:nodetypes="ccccc" />
    <path
       style="fill:none;stroke:#ffffff;stroke-width:0.26458332px;stroke-linecap:butt;stroke-linejoin:miter;stroke-opacity:1"
       d="m 678.51078,119.78605 2.57246,2.57247"
       id="path4342"
       inkscape:connector-curvature="0" />
    <path
       inkscape:connector-curvature="0"
       id="path4344"
       d="m 681.08324,119.78605 -2.57246,2.57247"
       style="fill:none;stroke:#ffffff;stroke-width:0.26458332px;stroke-linecap:butt;stroke-linejoin:miter;stroke-opacity:1" />
    <path
       style="fill:none;stroke:#ffffff;stroke-width:0.26458332px;stroke-linecap:butt;stroke-linejoin:miter;stroke-opacity:1"
       d="m 654.24187,121.16583 h 2.44385"
       id="path4358"
       inkscape:connector-curvature="0" />
    <text
       id="text4366"
       y="122.32251"
       x="642.49432"
       style="font-style:normal;font-variant:normal;font-weight:normal;font-stretch:normal;font-size:2.90899181px;line-height:1.25;font-family:Roboto;-inkscape-font-specification:'Roboto, Normal';font-variant-ligatures:normal;font-variant-caps:normal;font-variant-numeric:normal;font-feature-settings:normal;text-align:center;letter-spacing:0px;word-spacing:0px;writing-mode:lr-tb;text-anchor:middle;fill:#000000;fill-opacity:1;stroke:none;stroke-width:0.13635899;filter:url(#filter4414)"
       xml:space="preserve"><tspan
         style="fill:#000000;stroke-width:0.13635899"
         y="122.32251"
         x="642.49432"
         id="tspan4364"
         sodipodi:role="line">Brayan</tspan></text>
    <text
       xml:space="preserve"
       style="font-style:normal;font-variant:normal;font-weight:normal;font-stretch:normal;font-size:2.90899181px;line-height:1.25;font-family:Roboto;-inkscape-font-specification:'Roboto, Normal';font-variant-ligatures:normal;font-variant-caps:normal;font-variant-numeric:normal;font-feature-settings:normal;text-align:center;letter-spacing:0px;word-spacing:0px;writing-mode:lr-tb;text-anchor:middle;fill:#ffffff;fill-opacity:1;stroke:none;stroke-width:0.13635899"
       x="642.49432"
       y="122.32251"
       id="text4362"><tspan
         sodipodi:role="line"
         id="tspan4360"
         x="642.49432"
         y="122.32251"
         style="fill:#ffffff;stroke-width:0.13635899">Brayan</tspan></text>
    <text
       xml:space="preserve"
       style="font-style:normal;font-variant:normal;font-weight:normal;font-stretch:normal;font-size:3.23002553px;line-height:1.25;font-family:Roboto;-inkscape-font-specification:'Roboto, Normal';font-variant-ligatures:normal;font-variant-caps:normal;font-variant-numeric:normal;font-feature-settings:normal;text-align:center;letter-spacing:0px;word-spacing:0px;writing-mode:lr-tb;text-anchor:middle;fill:#4d4d4d;fill-opacity:1;stroke:none;stroke-width:0.15140745"
       x="203.23361"
       y="117.15873"
       id="text4430"
       transform="scale(0.95529442,1.0467977)"><tspan
         sodipodi:role="line"
         id="tspan4428"
         x="203.23361"
         y="117.15873"
         style="fill:#4d4d4d;stroke-width:0.15140745">Google</tspan></text>
    <g
       id="g4523"
       transform="translate(0.02597408,0.23151044)">
      <g
         transform="translate(281.09664,71.910787)"
         id="g4720">
        <g
           id="g4441"
           transform="translate(-284.81599,0.34540163)">
          <circle
             r="0.34771067"
             cy="56.240261"
             cx="685.11865"
             id="path4432"
             style="opacity:1;vector-effect:none;fill:#333333;fill-opacity:1;stroke:none;stroke-width:0.10632154;stroke-linecap:butt;stroke-linejoin:miter;stroke-miterlimit:4;stroke-dasharray:none;stroke-dashoffset:0;stroke-opacity:1" />
          <circle
             style="opacity:1;vector-effect:none;fill:#333333;fill-opacity:1;stroke:none;stroke-width:0.10632154;stroke-linecap:butt;stroke-linejoin:miter;stroke-miterlimit:4;stroke-dasharray:none;stroke-dashoffset:0;stroke-opacity:1"
             id="circle4434"
             cx="685.11865"
             cy="57.571445"
             r="0.34771067" />
          <circle
             r="0.34771067"
             cy="58.90263"
             cx="685.11865"
             id="circle4436"
             style="opacity:1;vector-effect:none;fill:#333333;fill-opacity:1;stroke:none;stroke-width:0.10632154;stroke-linecap:butt;stroke-linejoin:miter;stroke-miterlimit:4;stroke-dasharray:none;stroke-dashoffset:0;stroke-opacity:1" />
        </g>
      </g>
    </g>
    <g
       id="g4646"
       transform="translate(-24.010934,72.56832)">
      <g
         id="g4631">
        <path
           style="fill:none;stroke:#c8c8c8;stroke-width:0.5291667;stroke-linecap:round;stroke-linejoin:round;stroke-miterlimit:4;stroke-dasharray:none;stroke-opacity:1"
           d="m 208.36203,57.457755 h -3.2765"
           id="path4474"
           inkscape:connector-curvature="0"
           sodipodi:nodetypes="cc" />
        <path
           inkscape:connector-curvature="0"
           id="path4476"
           d="m 206.61882,58.991053 -1.53329,-1.533298"
           style="fill:none;stroke:#c8c8c8;stroke-width:0.5291667;stroke-linecap:round;stroke-linejoin:round;stroke-miterlimit:4;stroke-dasharray:none;stroke-opacity:1"
           sodipodi:nodetypes="cc" />
        <path
           sodipodi:nodetypes="cc"
           style="fill:none;stroke:#c8c8c8;stroke-width:0.5291667;stroke-linecap:round;stroke-linejoin:round;stroke-miterlimit:4;stroke-dasharray:none;stroke-opacity:1"
           d="m 206.61882,55.924456 -1.53329,1.533299"
           id="path4478"
           inkscape:connector-curvature="0" />
      </g>
      <g
         id="g4636">
        <path
           sodipodi:nodetypes="cc"
           inkscape:connector-curvature="0"
           id="path4480"
           d="m 212.49386,57.457755 h 3.2765"
           style="fill:none;stroke:#c8c8c8;stroke-width:0.5291667;stroke-linecap:round;stroke-linejoin:round;stroke-miterlimit:4;stroke-dasharray:none;stroke-opacity:1" />
        <path
           sodipodi:nodetypes="cc"
           style="fill:none;stroke:#c8c8c8;stroke-width:0.5291667;stroke-linecap:round;stroke-linejoin:round;stroke-miterlimit:4;stroke-dasharray:none;stroke-opacity:1"
           d="m 214.23707,58.991053 1.53329,-1.533298"
           id="path4482"
           inkscape:connector-curvature="0" />
        <path
           inkscape:connector-curvature="0"
           id="path4484"
           d="m 214.23707,55.924456 1.53329,1.533299"
           style="fill:none;stroke:#c8c8c8;stroke-width:0.5291667;stroke-linecap:round;stroke-linejoin:round;stroke-miterlimit:4;stroke-dasharray:none;stroke-opacity:1"
           sodipodi:nodetypes="cc" />
      </g>
    </g>
    <g
       id="g4657"
       transform="translate(-23.994416,72.533332)">
      <path
         inkscape:connector-curvature="0"
         id="path4486"
         d="m 226.92285,57.519 1.96784,-1.967838"
         style="fill:none;stroke:#666666;stroke-width:0.5291667;stroke-linecap:round;stroke-linejoin:round;stroke-miterlimit:4;stroke-dasharray:none;stroke-opacity:1" />
      <path
         style="fill:none;stroke:#666666;stroke-width:0.5291667;stroke-linecap:round;stroke-linejoin:round;stroke-miterlimit:4;stroke-dasharray:none;stroke-opacity:1"
         d="m 230.85853,57.519 -1.96784,-1.967838"
         id="path4488"
         inkscape:connector-curvature="0" />
      <path
         inkscape:connector-curvature="0"
         id="path4490"
         d="m 227.46029,57.035431 v 2.298568"
         style="opacity:1;vector-effect:none;fill:none;fill-opacity:1;stroke:#666666;stroke-width:0.5291667;stroke-linecap:round;stroke-linejoin:round;stroke-miterlimit:4;stroke-dasharray:none;stroke-dashoffset:0;stroke-opacity:1" />
      <path
         style="opacity:1;vector-effect:none;fill:none;fill-opacity:1;stroke:#666666;stroke-width:0.5291667;stroke-linecap:round;stroke-linejoin:round;stroke-miterlimit:4;stroke-dasharray:none;stroke-dashoffset:0;stroke-opacity:1"
         d="m 230.3211,57.035431 v 2.298568"
         id="path4506"
         inkscape:connector-curvature="0" />
      <path
         inkscape:connector-curvature="0"
         id="path4516"
         d="m 227.46029,59.333997 h 2.86081"
         style="opacity:1;vector-effect:none;fill:none;fill-opacity:1;stroke:#666666;stroke-width:0.5291667;stroke-linecap:round;stroke-linejoin:round;stroke-miterlimit:4;stroke-dasharray:none;stroke-dashoffset:0;stroke-opacity:1" />
    </g>
    <g
       transform="translate(-24.044024,72.557387)"
       id="g4650">
      <path
         id="path4538"
         d="m 222.95084,57.914007 a 1.6763428,1.6763428 0 0 1 -1.573,1.096833 1.6763428,1.6763428 0 0 1 -1.67632,-1.676342 1.6763428,1.6763428 0 0 1 1.67632,-1.676344 1.6763428,1.6763428 0 0 1 1.37406,0.716074"
         style="opacity:1;vector-effect:none;fill:none;fill-opacity:1;stroke:#666666;stroke-width:0.5291667;stroke-linecap:round;stroke-linejoin:round;stroke-miterlimit:4;stroke-dasharray:none;stroke-dashoffset:0;stroke-opacity:1"
         inkscape:connector-curvature="0" />
      <path
         sodipodi:nodetypes="cccc"
         inkscape:connector-curvature="0"
         id="path4535"
         d="m 222.18304,56.852595 1.02583,-0.945878 -0.0633,1.004003 z"
         style="fill:#4d4d4d;fill-opacity:1;stroke:#666666;stroke-width:0.5291667;stroke-linecap:butt;stroke-linejoin:miter;stroke-miterlimit:4;stroke-dasharray:none;stroke-opacity:1" />
    </g>
    <path
       style="opacity:1;vector-effect:none;fill:#ffffff;fill-opacity:1;stroke:#b3b3b3;stroke-width:0.26458332;stroke-linecap:round;stroke-linejoin:round;stroke-miterlimit:4;stroke-dasharray:none;stroke-dashoffset:0;stroke-opacity:1"
       d="m 209.7826,126.61018 h 468.6217 v 6.76572 H 209.7826 Z"
       id="rect4691"
       inkscape:connector-curvature="0"
       sodipodi:nodetypes="ccccc" />
    <g
       transform="translate(-25.12074,72.931563)"
       id="g4706">
      <path
         style="fill:#808080;stroke:#666666;stroke-width:0.5291667;stroke-linecap:butt;stroke-linejoin:miter;stroke-miterlimit:4;stroke-dasharray:none;stroke-opacity:1"
         d="m 251.97583,47.515272 2.02542,2.025428"
         id="path4694"
         inkscape:connector-curvature="0" />
      <path
         inkscape:connector-curvature="0"
         id="path4696"
         d="M 254.00125,47.515272 251.97583,49.5407"
         style="fill:#808080;stroke:#666666;stroke-width:0.5291667;stroke-linecap:butt;stroke-linejoin:miter;stroke-miterlimit:4;stroke-dasharray:none;stroke-opacity:1" />
    </g>
    <path
       style="opacity:1;vector-effect:none;fill:none;fill-opacity:1;stroke:#666666;stroke-width:0.47460601;stroke-linecap:butt;stroke-linejoin:miter;stroke-miterlimit:4;stroke-dasharray:none;stroke-dashoffset:0;stroke-opacity:1"
       inkscape:transform-center-x="3.467687e-006"
       inkscape:transform-center-y="-0.16857296"
       d="m 675.06068,128.1408 0.51882,1.05123 1.16011,0.16858 -0.83947,0.81828 0.19817,1.15542 -1.03763,-0.54552 -1.03764,0.54552 0.19817,-1.15542 -0.83946,-0.81828 1.16011,-0.16858 z"
       id="path4714"
       inkscape:connector-curvature="0"
       sodipodi:nodetypes="ccccccccccc" />
    <text
       xml:space="preserve"
       style="font-style:normal;font-variant:normal;font-weight:normal;font-stretch:normal;font-size:23.02519226px;line-height:1.25;font-family:Roboto;-inkscape-font-specification:'Roboto, Normal';font-variant-ligatures:normal;font-variant-caps:normal;font-variant-numeric:normal;font-feature-settings:normal;text-align:center;letter-spacing:0px;word-spacing:0px;writing-mode:lr-tb;text-anchor:middle;fill:#4285f4;fill-opacity:1;stroke:none;stroke-width:1.07930565"
       x="432.35666"
       y="205.75534"
       id="text4661"><tspan
         sodipodi:role="line"
         id="tspan4659"
         x="432.35666"
         y="205.75534"
         style="fill:#4285f4;fill-opacity:1;stroke-width:1.07930565"><tspan
           style="fill:#80b3ff;fill-opacity:1;stroke-width:1.07930565"
           id="tspan4663">G</tspan><tspan
           style="fill:#ffaaaa;stroke-width:1.07930565"
           id="tspan4667">o</tspan><tspan
           style="fill:#ffdd55;stroke-width:1.07930565"
           id="tspan4673">o</tspan><tspan
           style="fill:#80b3ff;fill-opacity:0.94117647;stroke-width:1.07930565"
           id="tspan4675">g</tspan><tspan
           style="fill:#5fd3bc;stroke-width:1.07930565"
           id="tspan4687">l</tspan><tspan
           style="fill:#ffaaaa;fill-opacity:1;stroke-width:1.07930565"
           id="tspan4689">e</tspan></tspan></text>
    <path
       style="opacity:0.26000001;vector-effect:none;fill:#000000;fill-opacity:1;stroke:none;stroke-width:0.26458332;stroke-linecap:round;stroke-linejoin:round;stroke-miterlimit:4;stroke-dasharray:none;stroke-dashoffset:0;stroke-opacity:1;filter:url(#filter4742)"
       d="m 356.56598,219.68182 h 154.57934 v 11.01209 H 356.56598 Z"
       id="rect4728"
       inkscape:connector-curvature="0"
       sodipodi:nodetypes="ccccc" />
    <path
       style="opacity:1;vector-effect:none;fill:#ffffff;fill-opacity:1;stroke:none;stroke-width:0.26458332;stroke-linecap:round;stroke-linejoin:round;stroke-miterlimit:4;stroke-dasharray:none;stroke-dashoffset:0;stroke-opacity:1"
       d="m 356.56598,219.41724 h 154.57934 v 11.01209 H 356.56598 Z"
       id="rect4722"
       inkscape:connector-curvature="0"
       sodipodi:nodetypes="ccccc" />
    <rect
       style="opacity:1;vector-effect:none;fill:#87b8ff;fill-opacity:1;stroke:none;stroke-width:0.27309647;stroke-linecap:round;stroke-linejoin:round;stroke-miterlimit:4;stroke-dasharray:none;stroke-dashoffset:0;stroke-opacity:1"
       id="rect4746"
       width="1.7445964"
       height="3.6297524"
       x="502.59442"
       y="222.11464"
       ry="0.87229818" />
    <rect
       style="opacity:1;vector-effect:none;fill:#5fd3bc;fill-opacity:1;stroke:none;stroke-width:0.49403691;stroke-linecap:round;stroke-linejoin:round;stroke-miterlimit:4;stroke-dasharray:none;stroke-dashoffset:0;stroke-opacity:1"
       id="rect4755"
       width="0.69854367"
       height="1.1410156"
       x="503.11746"
       y="226.59093"
       ry="0.34927183" />
    <path
       inkscape:connector-curvature="0"
       style="opacity:1;vector-effect:none;fill:none;fill-opacity:1;stroke:#ffaaaa;stroke-width:0.52916664;stroke-linecap:round;stroke-linejoin:round;stroke-miterlimit:4;stroke-dasharray:none;stroke-dashoffset:0;stroke-opacity:1"
       d="m 505.18557,224.84461 v 0 a 1.718876,1.718876 0 0 1 -1.71887,1.71888 1.718876,1.718876 0 0 1 -1.71889,-1.71888"
       id="path4753" />
    <path
       inkscape:connector-curvature="0"
       style="opacity:1;vector-effect:none;fill:#ffdd55;fill-opacity:1;stroke:#ffdd55;stroke-width:0.52916664;stroke-linecap:round;stroke-linejoin:round;stroke-miterlimit:4;stroke-dasharray:none;stroke-dashoffset:0;stroke-opacity:1"
       d="m 502.25705,226.06582 a 1.718876,1.718876 0 0 1 -0.50924,-1.22121"
       id="path4770" />
    <g
       id="g4684"
       transform="matrix(0.92928151,0,0,0.92928151,14.755157,9.156115)">
      <circle
         r="1.9841559"
         cy="120.80923"
         cx="183.6743"
         id="path4660"
         style="opacity:1;vector-effect:none;fill:#ffffff;fill-opacity:1;stroke:none;stroke-width:1.84474766;stroke-linecap:round;stroke-linejoin:round;stroke-miterlimit:4;stroke-dasharray:none;stroke-dashoffset:0;stroke-opacity:1" />
      <g
         transform="matrix(0.02310811,0,0,0.02310811,183.79794,114.6531)"
         id="g4671">
        <path
           d="m 50.170826,319.55158 q -7.32365,10.49063 -20.48642,15.73595 -13.0638,5.14634 -30.48219966,5.14634 -17.61634034,0 -31.27396034,-8.21436 -13.65761,-8.31332 -21.17919,-23.55443 -7.422623,-15.2411 -7.620553,-35.33165 v -12.56896 q 0,-32.56053 15.142133,-50.47378 15.24111,-17.91324 42.7542603,-17.91324 22.5647497,0 36.3213297,11.57928 13.75658,11.48031 16.8246,32.6595 h -19.0019 q -5.34428,-28.60181 -34.0450597,-28.60181 -19.1008603,0 -28.9976803,13.45968 -9.79785,13.3607 -9.89682,38.79553 v 11.77722 q 0,24.24721 11.08444,38.5976 11.08444,14.25142 29.98736034,14.25142 10.68856996,0 18.70498966,-2.37524 8.01643,-2.37524 13.26174,-8.01642 V 282.1416 H -2.0843837 V 266.70257 H 50.170826 Z"
           style="font-style:normal;font-variant:normal;font-weight:normal;font-stretch:normal;font-size:medium;line-height:1.25;font-family:Roboto;-inkscape-font-specification:'Roboto, Normal';font-variant-ligatures:normal;font-variant-caps:normal;font-variant-numeric:normal;font-feature-settings:normal;text-align:center;letter-spacing:0px;word-spacing:0px;writing-mode:lr-tb;text-anchor:middle;fill:#5fd3bc;fill-opacity:1;stroke:none;stroke-width:9.50094604"
           id="path4533"
           inkscape:connector-curvature="0" />
        <path
           style="font-style:normal;font-variant:normal;font-weight:normal;font-stretch:normal;font-size:medium;line-height:1.25;font-family:Roboto;-inkscape-font-specification:'Roboto, Normal';font-variant-ligatures:normal;font-variant-caps:normal;font-variant-numeric:normal;font-feature-settings:normal;text-align:center;letter-spacing:0px;word-spacing:0px;writing-mode:lr-tb;text-anchor:middle;fill:#80b3ff;fill-opacity:1;stroke:none;stroke-width:9.50094604"
           d="M 31.267906,314.2453 V 282.14158 H -2.0843837 V 266.70256 H 50.170826 v 47.54287"
           id="path4545"
           inkscape:connector-curvature="0" />
        <path
           style="font-style:normal;font-variant:normal;font-weight:normal;font-stretch:normal;font-size:medium;line-height:1.25;font-family:Roboto;-inkscape-font-specification:'Roboto, Normal';font-variant-ligatures:normal;font-variant-caps:normal;font-variant-numeric:normal;font-feature-settings:normal;text-align:center;letter-spacing:0px;word-spacing:0px;writing-mode:lr-tb;text-anchor:middle;fill:none;fill-opacity:1;stroke:none;stroke-width:9.50094604"
           d="m 50.170823,304.80518 v 14.74639 0 c -4.882433,6.99376 -11.711238,12.23907 -20.48642,15.73597 -8.709199,3.43087 -18.869932,5.14633 -30.48219808,5.14633 -11.74422692,0 -22.16888192,-2.73812 -31.27396092,-8.21436 -9.105072,-5.5422 -16.164804,-13.39369 -21.179189,-23.55443 -2.01766,-4.14292 -3.634952,-8.55459 -4.851871,-13.23501"
           id="path4561"
           inkscape:connector-curvature="0" />
        <path
           style="font-style:normal;font-variant:normal;font-weight:normal;font-stretch:normal;font-size:medium;line-height:1.25;font-family:Roboto;-inkscape-font-specification:'Roboto, Normal';font-variant-ligatures:normal;font-variant-caps:normal;font-variant-numeric:normal;font-feature-settings:normal;text-align:center;letter-spacing:0px;word-spacing:0px;writing-mode:lr-tb;text-anchor:middle;fill:none;fill-opacity:1;stroke:none;stroke-width:9.50094604"
           d="m 31.2679,304.80515 -5e-6,-22.66354 H -2.0843871 V 266.70256 H 50.170823 v 38.10262"
           id="path4559"
           inkscape:connector-curvature="0" />
        <path
           style="font-style:normal;font-variant:normal;font-weight:normal;font-stretch:normal;font-size:medium;line-height:1.25;font-family:Roboto;-inkscape-font-specification:'Roboto, Normal';font-variant-ligatures:normal;font-variant-caps:normal;font-variant-numeric:normal;font-feature-settings:normal;text-align:center;letter-spacing:0px;word-spacing:0px;writing-mode:lr-tb;text-anchor:middle;fill:none;fill-opacity:1;stroke:none;stroke-width:9.50094604"
           d="m -38.505846,295.45044 c 1.833925,5.7545 4.440475,10.81918 7.819652,15.19402 7.389624,9.50095 17.38541,14.25141 29.98735838,14.25141 7.12571322,0 13.36070962,-0.79174 18.70498862,-2.37525 5.344287,-1.58348 9.764868,-4.25563 13.261742,-8.01642 l 5e-6,-9.69905"
           id="path4557"
           inkscape:connector-curvature="0" />
        <path
           style="font-style:normal;font-variant:normal;font-weight:normal;font-stretch:normal;font-size:medium;line-height:1.25;font-family:Roboto;-inkscape-font-specification:'Roboto, Normal';font-variant-ligatures:normal;font-variant-caps:normal;font-variant-numeric:normal;font-feature-settings:normal;text-align:center;letter-spacing:0px;word-spacing:0px;writing-mode:lr-tb;text-anchor:middle;fill:none;fill-opacity:1;stroke:none;stroke-width:9.50094604"
           d="m -58.102816,295.43007 c -1.767637,-6.79852 -2.690532,-14.16407 -2.768682,-22.09665 v -12.56895 c 0,-21.70703 5.047376,-38.53162 15.142133,-50.47378 10.16074,-11.94216 24.412159,-17.91324 42.7542581,-17.91324 15.0431679,0 27.1502769,3.85976 36.3213299,11.57928 9.171054,7.65354 14.779255,18.54004 16.8246,32.65951 H 31.168925 c -3.562856,-19.06788 -14.911208,-28.60182 -34.0450618,-28.60182 -12.7339062,0 -22.3997992,4.48656 -28.9976792,13.45969 -6.531899,8.90711 -9.83084,21.83897 -9.896819,38.79551 v 11.77723 c 0,8.77285 1.088263,16.57406 3.264789,23.40359"
           id="path4552"
           inkscape:connector-curvature="0" />
        <path
           style="font-style:normal;font-variant:normal;font-weight:normal;font-stretch:normal;font-size:medium;line-height:1.25;font-family:Roboto;-inkscape-font-specification:'Roboto, Normal';font-variant-ligatures:normal;font-variant-caps:normal;font-variant-numeric:normal;font-feature-settings:normal;text-align:center;letter-spacing:0px;word-spacing:0px;writing-mode:lr-tb;text-anchor:middle;fill:#ffdd55;fill-opacity:1;stroke:none;stroke-width:9.50094604"
           d="m -58.622432,293.30996 c -1.429281,-6.20268 -2.17897,-12.86153 -2.249069,-19.97654 v -12.56895 c 0,-21.70703 5.047377,-38.53162 15.142133,-50.47378 10.160741,-11.94216 24.412159,-17.91324 42.7542585,-17.91324 15.0431685,0 27.1502765,3.85976 36.3213305,11.57928 9.171053,7.65354 14.779254,18.54004 16.8246,32.65951 H 31.168922 c -3.562855,-19.06789 -14.911207,-28.60182 -34.0450615,-28.60182 -12.7339065,0 -22.3997995,4.48656 -28.9976795,13.45969 -6.531898,8.90711 -9.83084,21.83897 -9.896819,38.79551 v 11.77723 c 0,7.86974 0.875737,14.95759 2.62721,21.26351"
           id="path4581"
           inkscape:connector-curvature="0" />
        <path
           style="font-style:normal;font-variant:normal;font-weight:normal;font-stretch:normal;font-size:medium;line-height:1.25;font-family:Roboto;-inkscape-font-specification:'Roboto, Normal';font-variant-ligatures:normal;font-variant-caps:normal;font-variant-numeric:normal;font-feature-settings:normal;text-align:center;letter-spacing:0px;word-spacing:0px;writing-mode:lr-tb;text-anchor:middle;fill:#ffaaaa;fill-opacity:1;stroke:none;stroke-width:9.50094604"
           d="m -2.9750143,192.3774 c -18.3420987,0 -32.5937557,5.97096 -42.7544967,17.91312 -0.292732,0.34631 -0.579784,0.69813 -0.864028,1.05265 -0.03572,0.0445 -0.07191,0.0887 -0.107487,0.13332 -0.269341,0.33818 -0.534676,0.68018 -0.796335,1.02578 -0.05142,0.0679 -0.10236,0.13644 -0.15348,0.20464 -0.264334,0.35265 -0.525973,0.70784 -0.782381,1.06815 -0.0034,0.005 -0.0064,0.01 -0.0098,0.0145 -0.257001,0.3614 -0.509064,0.72747 -0.758092,1.09658 -0.0401,0.0594 -0.08052,0.11865 -0.120407,0.17828 -0.241395,0.36086 -0.47879,0.72581 -0.712618,1.09399 -0.0421,0.0663 -0.08372,0.13294 -0.125574,0.19947 -0.234503,0.37274 -0.466177,0.74842 -0.692981,1.12861 -0.02831,0.0474 -0.05605,0.0956 -0.08423,0.14315 -0.211473,0.35687 -0.419012,0.71714 -0.623734,1.08055 -0.03402,0.0604 -0.06848,0.1203 -0.102319,0.18087 -0.217707,0.38975 -0.431319,0.78359 -0.641305,1.18081 -0.0358,0.0677 -0.07139,0.13565 -0.106969,0.2036 -0.21074,0.40246 -0.418287,0.80796 -0.621151,1.21801 -0.01994,0.0403 -0.03956,0.0811 -0.05943,0.12144 -0.190079,0.3864 -0.376541,0.77631 -0.559654,1.16943 -0.0305,0.0655 -0.06116,0.13071 -0.09147,0.19638 -0.188632,0.40875 -0.372827,0.82166 -0.553972,1.23766 -0.036,0.0827 -0.07178,0.16558 -0.107487,0.24855 -0.179591,0.41728 -0.356539,0.83744 -0.528648,1.26193 -0.02698,0.0666 -0.0533,0.1338 -0.0801,0.20051 -0.154604,0.38499 -0.305752,0.77337 -0.454234,1.16427 -0.03087,0.0813 -0.06242,0.1619 -0.09302,0.24341 -0.161827,0.43106 -0.319442,0.86609 -0.473872,1.30429 -0.02896,0.0822 -0.0576,0.1646 -0.0863,0.24702 -0.08492,0.24392 -0.166434,0.4913 -0.249079,0.73745 -0.124521,0.37081 -0.247036,0.74348 -0.366387,1.11929 -0.06788,0.21376 -0.134811,0.42852 -0.20102,0.64389 -0.111871,0.36391 -0.221051,0.73065 -0.328147,1.09916 -0.06734,0.23172 -0.135048,0.46305 -0.200504,0.69659 -0.111217,0.39685 -0.218244,0.79783 -0.324011,1.19994 -0.05082,0.1932 -0.103918,0.38433 -0.15348,0.57878 -0.152013,0.59637 -0.298555,1.19774 -0.438732,1.80557 -0.0032,0.014 -0.0061,0.0284 -0.0093,0.0424 l 18.657776,3.08354 c 0.02517,-0.11338 0.05291,-0.22366 0.07855,-0.33642 0.06094,-0.26805 0.122465,-0.53517 0.186034,-0.79997 0.04195,-0.1747 0.08506,-0.34811 0.128159,-0.52141 0.06222,-0.25019 0.125555,-0.49898 0.190169,-0.74621 0.04686,-0.17928 0.094,-0.35816 0.142111,-0.53588 0.06781,-0.25046 0.137429,-0.49885 0.207737,-0.74621 0.04888,-0.17195 0.0972,-0.34425 0.147278,-0.51469 0.07353,-0.25025 0.149698,-0.49766 0.225827,-0.74467 0.04839,-0.15701 0.09577,-0.31507 0.145211,-0.47075 0.08038,-0.25313 0.163857,-0.50276 0.247013,-0.75242 0.0512,-0.1537 0.100713,-0.30909 0.152963,-0.46146 0.11266,-0.32861 0.228674,-0.65315 0.346231,-0.97565 0.02107,-0.0578 0.04078,-0.11708 0.06201,-0.17468 0.144206,-0.39135 0.292438,-0.77782 0.443902,-1.16015 0.03177,-0.0802 0.06506,-0.1584 0.09715,-0.23823 0.116488,-0.28966 0.233802,-0.57803 0.354499,-0.86246 0.05888,-0.13875 0.119957,-0.27487 0.179835,-0.41238 0.100155,-0.23 0.200382,-0.45976 0.30334,-0.68627 0.0685,-0.15068 0.139033,-0.29888 0.208772,-0.44802 0.09312,-0.19915 0.186827,-0.39788 0.282154,-0.59428 0.07534,-0.15523 0.151688,-0.30901 0.228409,-0.46252 0.101809,-0.20368 0.204785,-0.406 0.309026,-0.60666 0.07378,-0.14203 0.148246,-0.28324 0.223242,-0.42376 0.103023,-0.19302 0.20732,-0.38449 0.312642,-0.57465 0.0803,-0.14497 0.160727,-0.28972 0.242364,-0.43304 0.110614,-0.19418 0.222827,-0.38608 0.335896,-0.57722 0.07757,-0.13113 0.154858,-0.26254 0.233577,-0.39224 0.1153,-0.18992 0.233106,-0.37693 0.350883,-0.56378 0.08446,-0.13398 0.168002,-0.26911 0.253732,-0.40153 0.128908,-0.1991 0.260951,-0.39463 0.39274,-0.59015 0.07096,-0.10525 0.140078,-0.21254 0.211873,-0.31676 0.20873,-0.30306 0.420351,-0.60182 0.636138,-0.89607 6.59788,-8.97314 16.263807,-13.46017 28.9977136,-13.46017 1.4948323,0 2.9420581,0.0583 4.3418521,0.17467 1.72e-4,1e-5 3.466e-4,-10e-6 5.186e-4,0 1.3996087,0.11638 2.7520026,0.29126 4.0565995,0.524 0.5219012,0.0931 1.0363597,0.19523 1.5430579,0.30696 3.8002233,0.83794 7.1723273,2.19965 10.1172113,4.08502 1.22e-4,8e-5 3.94e-4,-8e-5 5.16e-4,0 7.263839,4.65061 11.925969,12.48779 13.985711,23.51123 h 19.001422 c -0.127833,-0.88246 -0.26911,-1.75194 -0.42478,-2.60916 -0.155668,-0.8572 -0.325509,-1.70172 -0.509011,-2.53368 -1.467996,-6.65546 -3.826719,-12.50304 -7.076054,-17.54209 -7.9e-5,-1.2e-4 7.7e-5,-3.9e-4 0,-5.1e-4 -2.437093,-3.77935 -5.375304,-7.10399 -8.814451,-9.97407 C 24.175228,196.23702 12.068154,192.3774 -2.9750143,192.3774 Z"
           id="path4647"
           inkscape:connector-curvature="0" />
        <path
           id="path4650"
           d="m -2.9750143,192.3774 c -18.3420987,0 -32.5937557,5.97096 -42.7544967,17.91312 -0.292732,0.34631 -0.579784,0.69813 -0.864028,1.05265 -0.03572,0.0445 -0.07191,0.0887 -0.107487,0.13332 -0.269341,0.33818 -0.534676,0.68018 -0.796335,1.02578 -0.05142,0.0679 -0.10236,0.13644 -0.15348,0.20464 -0.264334,0.35265 -0.525973,0.70784 -0.782381,1.06815 -0.0034,0.005 -0.0064,0.01 -0.0098,0.0145 -0.257001,0.3614 -0.509064,0.72747 -0.758092,1.09658 -0.0401,0.0594 -0.08052,0.11865 -0.120407,0.17828 -0.241395,0.36086 -0.47879,0.72581 -0.712618,1.09399 -0.0421,0.0663 -0.08372,0.13294 -0.125574,0.19947 -0.234503,0.37274 -0.466177,0.74842 -0.692981,1.12861 -0.02831,0.0474 -0.05605,0.0956 -0.08423,0.14315 -0.211473,0.35687 -0.419012,0.71714 -0.623734,1.08055 -0.03402,0.0604 -0.06848,0.1203 -0.102319,0.18087 -0.217707,0.38975 -0.431319,0.78359 -0.641305,1.18081 -0.0358,0.0677 -0.07139,0.13565 -0.106969,0.2036 -0.21074,0.40246 -0.418287,0.80796 -0.621151,1.21801 -0.01994,0.0403 -0.03956,0.0811 -0.05943,0.12144 -0.190079,0.3864 -0.376541,0.77631 -0.559654,1.16943 -0.0305,0.0655 -0.06116,0.13071 -0.09147,0.19638 -0.188632,0.40875 -0.372827,0.82166 -0.553972,1.23766 -0.036,0.0827 -0.07178,0.16558 -0.107487,0.24855 -0.179591,0.41728 -0.356539,0.83744 -0.528648,1.26193 -0.02698,0.0666 -0.0533,0.1338 -0.0801,0.20051 -0.154604,0.38499 -0.305752,0.77337 -0.454234,1.16427 -0.03087,0.0813 -0.06242,0.1619 -0.09302,0.24341 -0.161827,0.43106 -0.319442,0.86609 -0.473872,1.30429 -0.02896,0.0822 -0.0576,0.1646 -0.0863,0.24702 -0.08492,0.24392 -0.166434,0.4913 -0.249079,0.73745 -0.124521,0.37081 -0.247036,0.74348 -0.366387,1.11929 -0.06788,0.21376 -0.134811,0.42852 -0.20102,0.64389 -0.111871,0.36391 -0.221051,0.73065 -0.328147,1.09916 -0.06734,0.23172 -0.135048,0.46305 -0.200504,0.69659 -0.111217,0.39685 -0.218244,0.79783 -0.324011,1.19994 -0.05082,0.1932 -0.103918,0.38433 -0.15348,0.57878 -0.152013,0.59637 -0.298555,1.19774 -0.438732,1.80557 -0.0032,0.014 -0.0061,0.0284 -0.0093,0.0424 l 18.657776,3.08354 c 0.02517,-0.11338 0.05291,-0.22366 0.07855,-0.33642 0.06094,-0.26805 0.122465,-0.53517 0.186034,-0.79997 0.04195,-0.1747 0.08506,-0.34811 0.128159,-0.52141 0.06222,-0.25019 0.125555,-0.49898 0.190169,-0.74621 0.04686,-0.17928 0.094,-0.35816 0.142111,-0.53588 0.06781,-0.25046 0.137429,-0.49885 0.207737,-0.74621 0.04888,-0.17195 0.0972,-0.34425 0.147278,-0.51469 0.07353,-0.25025 0.149698,-0.49766 0.225827,-0.74467 0.04839,-0.15701 0.09577,-0.31507 0.145211,-0.47075 0.08038,-0.25313 0.163857,-0.50276 0.247013,-0.75242 0.0512,-0.1537 0.100713,-0.30909 0.152963,-0.46146 0.11266,-0.32861 0.228674,-0.65315 0.346231,-0.97565 0.02107,-0.0578 0.04078,-0.11708 0.06201,-0.17468 0.144206,-0.39135 0.292438,-0.77782 0.443902,-1.16015 0.03177,-0.0802 0.06506,-0.1584 0.09715,-0.23823 0.116488,-0.28966 0.233802,-0.57803 0.354499,-0.86246 0.05888,-0.13875 0.119957,-0.27487 0.179835,-0.41238 0.100155,-0.23 0.200382,-0.45976 0.30334,-0.68627 0.0685,-0.15068 0.139033,-0.29888 0.208772,-0.44802 0.09312,-0.19915 0.186827,-0.39788 0.282154,-0.59428 0.07534,-0.15523 0.151688,-0.30901 0.228409,-0.46252 0.101809,-0.20368 0.204785,-0.406 0.309026,-0.60666 0.07378,-0.14203 0.148246,-0.28324 0.223242,-0.42376 0.103023,-0.19302 0.20732,-0.38449 0.312642,-0.57465 0.0803,-0.14497 0.160727,-0.28972 0.242364,-0.43304 0.110614,-0.19418 0.222827,-0.38608 0.335896,-0.57722 0.07757,-0.13113 0.154858,-0.26254 0.233577,-0.39224 0.1153,-0.18992 0.233106,-0.37693 0.350883,-0.56378 0.08446,-0.13398 0.168002,-0.26911 0.253732,-0.40153 0.128908,-0.1991 0.260951,-0.39463 0.39274,-0.59015 0.07096,-0.10525 0.140078,-0.21254 0.211873,-0.31676 0.20873,-0.30306 0.420351,-0.60182 0.636138,-0.89607 6.59788,-8.97314 16.263807,-13.46017 28.9977136,-13.46017 1.4948323,0 2.9420581,0.0583 4.3418521,0.17467 1.72e-4,1e-5 3.466e-4,-10e-6 5.186e-4,0 1.3996087,0.11638 2.7520026,0.29126 4.0565995,0.524 0.5219012,0.0931 1.0363597,0.19523 1.5430579,0.30696 3.8002233,0.83794 7.1723273,2.19965 10.1172113,4.08502 1.22e-4,8e-5 3.94e-4,-8e-5 5.16e-4,0 7.263839,4.65061 11.925969,12.48779 13.985711,23.51123 h 19.001422 c -0.127833,-0.88246 -0.26911,-1.75194 -0.42478,-2.60916 -0.155668,-0.8572 -0.325509,-1.70172 -0.509011,-2.53368 -1.467996,-6.65546 -3.826719,-12.50304 -7.076054,-17.54209 -7.9e-5,-1.2e-4 7.7e-5,-3.9e-4 0,-5.1e-4 -2.437093,-3.77935 -5.375304,-7.10399 -8.814451,-9.97407 C 24.175228,196.23702 12.068154,192.3774 -2.9750143,192.3774 Z"
           style="font-style:normal;font-variant:normal;font-weight:normal;font-stretch:normal;font-size:medium;line-height:1.25;font-family:Roboto;-inkscape-font-specification:'Roboto, Normal';font-variant-ligatures:normal;font-variant-caps:normal;font-variant-numeric:normal;font-feature-settings:normal;text-align:center;letter-spacing:0px;word-spacing:0px;writing-mode:lr-tb;text-anchor:middle;fill:#ffaaaa;fill-opacity:1;stroke:none;stroke-width:9.50094604"
           inkscape:connector-curvature="0" />
      </g>
    </g>
    <g
       id="g4705"
       transform="translate(-0.19878168,-0.90711672)">
      <rect
         y="130.38585"
         x="212.46259"
         height="1.9878172"
         width="2.2801433"
         id="rect4686"
         style="opacity:1;vector-effect:none;fill:#2ca089;fill-opacity:1;stroke:none;stroke-width:1.62746835;stroke-linecap:round;stroke-linejoin:round;stroke-miterlimit:4;stroke-dasharray:none;stroke-dashoffset:0;stroke-opacity:1" />
      <path
         sodipodi:nodetypes="ssccss"
         inkscape:connector-curvature="0"
         id="rect4698"
         d="m 213.60266,129.30207 c -0.47321,0 -0.85417,0.38094 -0.85417,0.85415 v 0.55966 h 1.70834 v -0.55966 c 0,-0.47321 -0.38096,-0.85415 -0.85417,-0.85415 z"
         style="opacity:1;vector-effect:none;fill:none;fill-opacity:1;stroke:#2ca089;stroke-width:0.2251568;stroke-linecap:round;stroke-linejoin:round;stroke-miterlimit:4;stroke-dasharray:none;stroke-dashoffset:0;stroke-opacity:1" />
    </g>
    <text
       xml:space="preserve"
       style="font-style:normal;font-variant:normal;font-weight:normal;font-stretch:normal;font-size:3.59547329px;line-height:1.25;font-family:Roboto;-inkscape-font-specification:'Roboto, Normal';font-variant-ligatures:normal;font-variant-caps:normal;font-variant-numeric:normal;font-feature-settings:normal;text-align:center;letter-spacing:0px;word-spacing:0px;writing-mode:lr-tb;text-anchor:middle;fill:#2ca089;fill-opacity:1;stroke:none;stroke-width:0.16853781"
       x="222.25262"
       y="131.29189"
       id="text4690"><tspan
         sodipodi:role="line"
         id="tspan4688"
         x="222.25262"
         y="131.29189"
         style="fill:#2ca089;fill-opacity:1;stroke-width:0.16853781">Secure</tspan></text>
    <text
       xml:space="preserve"
       style="font-style:normal;font-variant:normal;font-weight:normal;font-stretch:normal;font-size:3.67580581px;line-height:1.25;font-family:Roboto;-inkscape-font-specification:'Roboto, Normal';font-variant-ligatures:normal;font-variant-caps:normal;font-variant-numeric:normal;font-feature-settings:normal;text-align:center;letter-spacing:0px;word-spacing:0px;writing-mode:lr-tb;text-anchor:middle;fill:#4d4d4d;fill-opacity:1;stroke:none;stroke-width:0.17230339"
       x="242.40424"
       y="131.33044"
       id="text4694"><tspan
         sodipodi:role="line"
         id="tspan4692"
         x="242.40424"
         y="131.33044"
         style="fill:#4d4d4d;stroke-width:0.17230339">google.com</tspan></text>
    <path
       style="fill:none;stroke:#b3b3b3;stroke-width:0.26458332px;stroke-linecap:round;stroke-linejoin:round;stroke-opacity:1"
       d="m 230.17091,127.88468 v 4.0845"
       id="path4707"
       inkscape:connector-curvature="0" />
    <g
       id="g4727"
       transform="translate(-1.3868355,-21.148138)">
      <path
         sodipodi:nodetypes="ccccc"
         inkscape:connector-curvature="0"
         id="path4721"
         d="m 667.76623,141.57466 v 1.89569 h 1.83581 v -1.89427 z"
         style="fill:none;stroke:#ffffff;stroke-width:0.26458332px;stroke-linecap:butt;stroke-linejoin:miter;stroke-opacity:1" />
      <path
         inkscape:connector-curvature="0"
         id="path4723"
         d="m 669.62321,142.95048 h 0.51676 v -1.88516 h -1.8645 v 0.5085 l 1.32657,0.002 z"
         style="fill:none;stroke:#ffffff;stroke-width:0.26458332px;stroke-linecap:butt;stroke-linejoin:miter;stroke-opacity:1" />
    </g>
  </g>
</svg>
